# xmcd
#
# Track frame offsets: 
#        150
#        14258
#        22241
#        32442
#        42597
#        56971
#        71004
#        85346
#        97569
#        110674
#        123102
#        135653
#        148343
#        161366
#        173864
#        188119
#        200170
#        213320
#        225563
#        239988
#        254372
#        270088
#        285050
#        297754
#
# Disc length: 4122 seconds
#
# Revision: 0
# Processed by: cddbd v1.5.2PL0 Copyright (c) Steve Scherf et al.
# Submitted via: ExactAudioCopy v0.95b4
#
DISCID=5d101818
DTITLE=Various Artist - The Singing Cowboys
DYEAR=2000
DGENRE=Western
TTITLE0=Gene Autry - Back In The Saddle Again
TTITLE1=Rex Allen - My Dear Old Arizona Home
TTITLE2=Bob Wills - Sugar Moon
TTITLE3=Sons of the Pioneers - One More Ride
TTITLE4=Ken Maynard - The Lone Star Trail
TTITLE5=Roy Rogers - Listen To The Rhythm of the Range
TTITLE6=Tex Ritter - The Oregon Trail
TTITLE7=Sons of the Pioneers - Sierra Nevada
TTITLE8=Patsy Montana - I'm An Old Cowhand (From the Rio Grande)
TTITLE9=Bob Wills - Lone Star Rag
TTITLE10=Gene Autry - Way Out West in Texas
TTITLE11=Roy Rogers - Don't Fence Me In
TTITLE12=Sons of the Pioneers - Billy the Kid
TTITLE13=Tex Ritter - A-Ridin' Old Paint
TTITLE14=Gene Autry - Mexicali Rose
TTITLE15=Bob Wills - Home in San Antone
TTITLE16=Sons of the Pioneers - The Devil's Great Grandson
TTITLE17=Roy Rogers - One More Ride
TTITLE18=Gene Autry - Take Me Back to My Boots and Saddle
TTITLE19=Ken Maynard - Home On the Range
TTITLE20=Girls of the Golden West - I Want To Be a Real Cowboy Girl
TTITLE21=Gene Autry - Tumbling Tumbleweeds
TTITLE22=Tex Ritter - Sam Hall
TTITLE23=Roy Rogers - Hi-Yo, Silver!
EXTD=
EXTT0=
EXTT1=
EXTT2=
EXTT3=
EXTT4=
EXTT5=
EXTT6=
EXTT7=
EXTT8=
EXTT9=
EXTT10=
EXTT11=
EXTT12=
EXTT13=
EXTT14=
EXTT15=
EXTT16=
EXTT17=
EXTT18=
EXTT19=
EXTT20=
EXTT21=
EXTT22=
EXTT23=
PLAYORDER=
